<svg xmlns="http://www.w3.org/2000/svg" xmlns:xlink="http://www.w3.org/1999/xlink" version="1.1" x="0px" y="0px" viewBox="0 0 100 100" enable-background="new 0 0 100 100" xml:space="preserve"><path d="M59.3,16.3C59.3,16.3,59.3,16.3,59.3,16.3C57.8,12.6,54.2,10,50,10c-5.5,0-10,4.5-10,10  c0,0.1,0,0.2,0,0.3l-20,2l3.5,4.9C18.2,33.3,15,41.3,15,50c0,19.3,15.7,35,35,35s35-15.7,35-35C85,33.9,74.1,20.3,59.3,16.3z M50,14  c3.3,0,6,2.7,6,6s-2.7,6-6,6s-6-2.7-6-6S46.7,14,50,14z M50,75c-13.8,0-25-11.2-25-25c0-5.4,1.7-10.3,4.6-14.4l2.7,3.7l7.9-17.6  C41,26.5,45.1,30,50,30c3.2,0,6-1.5,7.8-3.7c0,0,0,0,0,0C67.8,29.5,75,38.9,75,50C75,63.8,63.8,75,50,75z"/></svg>